<svg version="1.2" xmlns="http://www.w3.org/2000/svg" viewBox="0 0 600 254" width="600" height="254"><style>.a{fill:#dab02e}.b{fill:#c4574c}.c{fill:#52605f}.d{fill:#4596c6}.e{fill:#fcf9f9}.f{fill-opacity:.9;fill:#dab02e}</style><path fill-rule="evenodd" class="a" d="m206 11h-8v-1zm-11 0l1 1z"/><path class="b" d="m212.6 13.1c7.2 5.6 4.5 23.7-1.6 28.9 1.4-4.6 3.9-20.6-6-18.9-5 0.8-8.9 6.3-13 8.9l4 10-7-17 5-9-2-3c5.6-2.1 15.3-4 20.6 0.1z"/><path fill-rule="evenodd" class="a" d="m216.1 19.9h-1v-3zm92-1v1h5zm119 0v1h5zm-217.4-7.6l0.6 0.4zm-16.6 0.6l1 1zm19 0l1 1zm-21 2l1 1zm23 0l1 1zm-21 1l1 1zm-3 4l1 1zm-0.7 1.7l0.3 0.7zm115.7-0.7l1 1z"/><path class="c" d="m305 52c-1.1-3-4.6-7.8-4.4-10.9 0.4-5 11.9-11.1 16.3-9.3 3.7 1.6 0.6 6.2 5.1 7.2l-5 13c11.1-10 7.2-38.8-12-30.9-11.4 4.7-13 27.1 0 30.9z"/><path class="a" d="m315 20l1 1z"/><path class="c" d="m432 54.7c-4.7 2-8.8-3-10.6-6.7-3.8-8.1-6.4-22.7 3.6-27.1 19.7-8.5 20.8 28.1 7 33.8z"/><path fill-rule="evenodd" class="a" d="m213.9 34c0.2 3-1.7 6-1.9 9-2.3 1.8-5.6 4.4-3.9 7.7 2.1 4.2 10 5.1 13.9 6.8 7.1 3 13.7 9.1 20 13.5l-16-9.7-18-7.3c-2.5 4.5-6.5 4.5-9 0-16.6 3.9-23.5 15.5-35 27l17 5v20h-1l-4-3c9.5 39.7-0.8 76.7-4 116l-8 1h-1l-4-57h-1l-4 58h-1c-2.3-3-5.7-2.1-9-1l-6.9-48 2.9-69c-6.5 1.3-18.4 5.1-23.4-1.1-5.7-7.2-4.2-29.6 6.4-29.9 0.2 2.7 0.7 5.3 0.9 8 1.9 19.7 15.5 5.1 27.1 3l3 7 4-3h1l4 3 3-7-4-2c-3.7 12.1-13.2-11.9-13-17l-2-2 2 2h1l3-10 14 6 2 5-1-3h1l-3 14-4 2 5-4c7-2.1 9.1-10.1 14.3-14.5 5.5-4.6 26.6-6.6 13.7-16.5l-3-11c7.7-7.2 20.6-15.2 21.9 2zm220.1-14l1 1zm-11 1l1 1zm13 0l1 1zm-221 1l1 1zm87 0l1 1zm16 0l1 1z"/><path class="b" d="m422 22l1 1z"/><path class="d" d="m437 22l1 1z"/><path fill-rule="evenodd" class="a" d="m259 24h-3v-1zm-70.7-0.3l0.4 0.6zm28 0l0.3 0.7zm83.7-0.7l1 1zm20 0l1 1z"/><path class="d" d="m438 23l1 1z"/><path class="a" d="m190 24l1 1zm62 0l1 1z"/><path class="b" d="m246.6 45c0.1-5.5-3.3-10.8 0.1-15.9 6-8.9 17.9-4.7 24.3 1 8.7 7.7 4.7 13.1 7.6 22.9 1.8 5.7 5.5 10 6.4 16l4-2v14l-24-11 5.4-17.7-3.4-10.3c-3 2.7-13.5 5.8-14.7 8.5-2.5 5.3 6.4 10.8 5.2 16.4-0.8 3.5-5.7 3.7-8.3 5.3-7.2 4.4-15.2 11.8-24.2 8.8l-3 62h-1v-13l-39-1-1-43-17-5c8.7-12.4 19.4-24.7 35-27 3.2 3.8 5.8 3.8 9 0 13 2.2 22.9 10.2 33 18 2.6-7.1 5.5-19.4 5.6-27z"/><path class="a" d="m262 24l1 1z"/><path class="d" d="m321 24l1 1z"/><path fill-rule="evenodd" class="a" d="m323 31h-1v-6zm-132.1 2.1h-1v-6zm107-3h-1v-3zm-81 4h-1v-5zm222.1-10.1l1 1zm-21 1l1 1zm-170 1l1 1zm18 0l1 1zm151.3 0.7l0.4 0.6zm22.6-0.6l1 1zm-193 1l1 1zm-1 1l1 1zm23 0l1 1zm172 0l1 1z"/><path class="b" d="m422 32h-1v-3z"/><path class="d" d="m441 29l1 1z"/><path class="a" d="m245 30l1 1z"/><path class="d" d="m297 30l1 1z"/><path class="a" d="m437 30v17h-1c-4.1-4.1-8.6-3.2-13 0l-1-17z"/><path fill-rule="evenodd" class="b" d="m200.1 33.9h-1v-3zm105.8 21c0-4.9-5.5-8.8-5.2-13.8 0.2-5.3 12.2-12.2 16.8-9.1 2.4 1.7 1.8 5.1 4.6 6.9-1.1 5.4-5.7 10-6.4 15.2-0.4 3.4 3.5 6.3 1.6 9.7-3.9 6.8-12.6 2-15.2-2.9 1.8-1.6 3.8-3.2 3.8-6zm117.8-24.6l0.6 0.4zm11.4-0.4l1 1zm2 0l1 1z"/><path class="d" d="m322 31l1 1z"/><path class="b" d="m429 31l1 1zm3.7 0.3l0.6 0.4z"/><path class="c" d="m199 32l1 1z"/><path class="b" d="m439 35h-1v-3z"/><path class="a" d="m274 33l1 1zm22 0l1 1zm27 0l1 1z"/><path class="b" d="m441 33l1 1z"/><path class="d" d="m323 34l1 1z"/><path fill-rule="evenodd" class="a" d="m442 40h-1v-6zm-118.1-3.9v4h1zm94 0v5h1zm-55 1.7c-24.1 6.1-18.7 40.5 6 34.6 8.5-2.1 17.7-9.5 16.4-19.3-1-7.6-15.1-17.1-22.4-15.3zm-171.6-2.1l0.4 0.6zm23.6 0.4l1 1zm62 0l1 1zm18 0l1 1z"/><path fill-rule="evenodd" class="b" d="m434.1 36.9l2 1v1l-2 1h-1zm7 5h-1v-5zm-16.4-4.6l0.6 0.4z"/><path class="a" d="m192 38l1 1zm22 0l1 1zm31 0l1 1z"/><path class="b" d="m420 42h-1v-4z"/><path fill-rule="evenodd" class="c" d="m426 38v2l-2-2zm8.3 0.7l0.4 0.6z"/><path fill-rule="evenodd" class="a" d="m279 45h-1v-6zm16.3-5.3l0.4 0.6z"/><path class="c" d="m308 39v3h-2v-3zm7 0l1 3z"/><path class="b" d="m424 39l1 1z"/><path class="a" d="m193 40l1 1zm20 0l1 1z"/><path class="b" d="m439 43h-1v-3z"/><path class="a" d="m194 41l1 1zm18 0l1 1z"/><path class="d" d="m323 41l1 1z"/><path class="a" d="m482 49l3-5h1l-1 6h1l1-3h1c-1 12.4-8.6 15.9-15 4l5 2v-10h1v5h2l1-7zm-236-7l1 1zm18.9 23c-1.3 7.4 0.2 12.4-2.9 20h-2l-3.5-22-4.4-13.2 13.9-7.8c8.5 9.9 0.7 13-1.1 23zm31.1-23l1 1zm123 0l1 1z"/><path class="b" d="m422 45h-1v-3z"/><path class="a" d="m440 42l1 1zm-287 1l1 1z"/><path class="b" d="m154 43l1 1z"/><path class="c" d="m146.3 66c-0.6-3.2-0.4-6.8-0.3-10 0.7-11 11.8-16.7 20.7-9.2 6.8 5.7 6.1 23.7-1.7 28.2l5-13-2 2h-1l-14-11-3 11h-1l-2-2 7 16h-1c-2.9-3.6-5.9-7.2-6.7-12z"/><path class="b" d="m159 43l1 1z"/><path class="a" d="m160.7 43.3l0.6 0.4z"/><path class="d" d="m151 44l1 1z"/><path class="a" d="m163 44l1 1zm159.3 0.7l0.4 0.6z"/><path class="b" d="m425 44l1 1zm9 0l1 1z"/><path class="a" d="m165 45l1 1z"/><path class="d" d="m297 45l1 1z"/><path class="b" d="m424 45l1 1zm11 0l1 1zm2 0l1 1z"/><path class="a" d="m439 45l1 1z"/><path class="d" d="m166 46l1 1z"/><path class="a" d="m309 46v3h-1l-1-3zm6 0l-1 3h-1v-3zm105 0l1 1z"/><path class="b" d="m422 46l1 1z"/><path class="a" d="m148 47l1 1zm98 0l1 1zm52 0l1 1z"/><path class="e" d="m314 48h-6v-1z"/><path class="b" d="m423 47l1 1z"/><path class="a" d="m431 48v1l-4-1v-1z"/><path class="e" d="m432 48h-4v-1z"/><path class="a" d="m432 47l1 1z"/><path class="b" d="m438 47l1 1z"/><path class="d" d="m168 48l1 1z"/><path class="a" d="m299 48l1 1zm21 0l1 1zm101 0l1 1z"/><path class="b" d="m431 48l1 1z"/><path class="a" d="m147 49l1 1zm22 0l1 1zm150 0l1 1zm118 0l1 1zm-192 1l1 1z"/><path class="b" d="m258 50v2h-2v-2zm8 0v2h-2v-2z"/><path class="a" d="m300 50l1 1zm122 0l1 1z"/><path class="d" d="m146 51l1 1z"/><path class="a" d="m170 51l1 1zm131 0l1 1zm17 0l1 1z"/><path class="e" d="m368 56l-2 4h7c-2.8 11.6-17.9 12.7-17.4-0.8 0.1-2.9 2.9-5.9 4.4-8.2z"/><path class="a" d="m423 51l1 1zm-297 1l1 1zm179 0l1 1zm10 0l1 1z"/><path class="d" d="m424 52l1 1z"/><path class="a" d="m435 52l1 1z"/><path class="b" d="m153 53l1 1z"/><path fill-rule="evenodd" class="a" d="m307 56h-1v-3zm-63-3l1 1zm34 0l1 1z"/><path class="d" d="m435 57l35 15c2-7 6.1-13.2 14-12l-2 13h-1v-2h-1c2.8 20.6-29.7 21.7-31 5-11.9 6-26.9 4.7-39 0-0.6 17.7-18.3 15.5-27 5l29-19.3 13-7.7 9-1z"/><path class="b" d="m154 54l1 1z"/><path class="a" d="m171.3 54.7l0.4 0.6zm-46 1l0.3 0.7z"/><path class="b" d="m155 55l1 1zm15 0l1 1z"/><path class="a" d="m279 55l1 1z"/><path class="b" d="m152 56l1 1z"/><path class="e" d="m166 60v1h-15l3-5z"/><path class="b" d="m156 56l1 1z"/><path fill-rule="evenodd" class="a" d="m363.9 60.1h-6c1.2-4.2 4.9-4.2 6 0zm-207 0h-4l1-3zm-32-2l2 2v6l-9 1 1-9zm118.1-2.1l1 1zm72.3 0.7l0.4 0.6zm-35.4 0.4l1 1z"/><path class="b" d="m160 58l1 1zm2 0l1 1zm2 0l1 1z"/><path class="a" d="m170 58l1 1zm146 0l1 1z"/><path class="b" d="m150 59l1 1z"/><path class="a" d="m304 59l1 1zm-158.7 1.7l0.4 0.6zm136.6-0.6l1 1zm7.1 7.1c1.4-5.5 10.2-7.6 14.9-6.1-2.5 6 12 7.9 14-1l26 12v1l-12-6c0.3 3.8-0.6 16.8 2.6 19.1 4.9 3.5 12.7-7.3 15.4-10.1l-2-1v-1l10 2 3-1c3.2 9.8 5.2 0.5 11.1 1.7 4.4 0.9 6 5.3 10.9 3.3 5.4 6.9 17.1 13.6 26 14l-2 10c-8.5-0.2-17.4-3-25-7l-2 5 5 38h-1v-6c-7.8 4-36 9.9-39.4-3.1-2.6-10.1 5.1-21.9 2.4-32.9l-14 5v23l-46-1c3.5-18.5-2.6-40.1 2.1-57.9z"/><path class="b" d="m149 61l1 1z"/><path class="d" d="m146 65h-1v-3z"/><path fill-rule="evenodd" class="b" d="m160 63h-3v-1zm-6-1l1 1zm12 0l1 1zm3 0l1 1z"/><path class="a" d="m283 62l1 1zm192 0l1 1z"/><path class="e" d="m153 63v2h-2v-2z"/><path fill-rule="evenodd" class="c" d="m159.9 64.1h-3v-1zm-5.6-0.4l0.4 0.6z"/><path class="b" d="m162.3 63.7l0.4 0.6z"/><path class="c" d="m163.3 63.7l0.4 0.6z"/><path class="e" d="m165 63l1 1zm3.3 0.7l0.4 0.6z"/><path class="a" d="m409 63l1 1zm74 0l1 1z"/><path class="e" d="m148.3 64.7l0.4 0.6z"/><path class="a" d="m408 64l1 1z"/><path fill-rule="evenodd" class="c" d="m449 64l2 2zm26 0l-2 3z"/><path class="a" d="m145.3 65.7l0.4 0.6z"/><path class="b" d="m147 65l1 1z"/><path class="e" d="m158.3 65.7l0.4 0.6z"/><path class="b" d="m169 65l1 1z"/><path class="a" d="m284 65l1 1z"/><path fill-rule="evenodd" class="c" d="m482 69h-1v-4zm-73-4l1 1z"/><path class="e" d="m149 66c5.5 12.4 13.3 12.1 19 0-10.4 9.5-9.1 9.4-19 0z"/><path class="b" d="m148 67l1 1z"/><path class="d" d="m170 67l1 1z"/><path fill-rule="evenodd" class="a" d="m242.3 67.7l0.4 0.6zm42.6 1.4l3-2z"/><path class="b" d="m350 75c-1.7 3.3-11.2 16.7-16 11.3-2.7-3-1.8-15.1-2-19.3z"/><path class="c" d="m409 67l1 1z"/><path class="a" d="m146 68l1 1z"/><path class="b" d="m149 68l1 1z"/><path class="e" d="m153 68c2.7 6.1 7.9 5.5 11 0z"/><path class="b" d="m167 68l1 1z"/><path class="a" d="m403 68l1 1z"/><path class="c" d="m472 68l1 1z"/><path class="b" d="m147 69l1 1z"/><path class="a" d="m169 69l1 1zm313 0l1 1zm-335 1l1 1z"/><path class="c" d="m252.7 70.3l0.6 0.4z"/><path class="d" d="m225.6 86.4c2.9-6.1 24-14.9 30.4-16.4l4 15h2l4-15c6.6 1.5 19.4 5.6 22.4 12.3 2 4.5 0.6 11.9 0.6 16.7l-11-8c0 21.4 3.9 41.6 1.3 63-0.7 5.7-0.1 15.9-4.2 20.4-5 5.7-27.6 4.6-29.6-3.4-7-26.8-1.5-53.1-1.5-80l-19 13-1-1c1.2-5.1-0.6-12 1.6-16.6z"/><path class="c" d="m268.7 70.3l0.6 0.4zm134.4-0.4l1 1zm68 0l1 1z"/><path class="b" d="m166 71l1 1z"/><path class="c" d="m250 71l1 1zm21.7 0.3l0.6 0.4z"/><path class="a" d="m399 71l1 1zm68 0l1 1zm2 0l1 1z"/><path class="c" d="m481 74h-1v-3z"/><path class="a" d="m148 72l1 1zm20 0l1 1z"/><path class="c" d="m247 72l1 1zm27 0l1 1z"/><path class="b" d="m165 73l1 1z"/><path class="a" d="m345.7 73.3l0.6 0.4z"/><path class="c" d="m399 73l1 1zm70 0l1 1z"/><path fill-rule="evenodd" class="a" d="m378 75h-4v-1zm103-2l1 1zm-332 1l1 1z"/><path class="d" d="m151 75l1 1z"/><path class="c" d="m164 75l-2 3z"/><path class="e" d="m164 78l4-3z"/><path class="c" d="m245 75l1 1zm34 0l1 1z"/><path class="b" d="m373 75c2 4.1 4.5 6.1 9 7 0.2-5.9-3.8-6.9-9-7z"/><path class="a" d="m379 75l1 1zm14 0l1 1z"/><path class="c" d="m408 75l1 1zm71 0l1 1z"/><path class="b" d="m162 76l1 1z"/><path class="d" d="m164 76l1 1z"/><path class="c" d="m244 76l1 1z"/><path class="a" d="m381 76l1 1z"/><path class="b" d="m154 77l1 1z"/><path class="a" d="m382.3 77.7l0.4 0.6z"/><path class="c" d="m478 77l1 1z"/><path class="e" d="m163 78l1 1z"/><path class="c" d="m237 78l1 1zm3.7 0.3l0.6 0.4z"/><path class="a" d="m479 78l1 1z"/><path class="c" d="m477 79l1 1z"/><path fill-rule="evenodd" class="e" d="m162.1 80.9h-3v-1zm-5.4-0.6l0.6 0.4z"/><path class="c" d="m287 80l1 1z"/><path class="a" d="m229 84l-3-2v3h-1v-4z"/><path class="c" d="m232 81l1 1zm153 0l1 1z"/><path class="a" d="m449 81l1 1z"/><path fill-rule="evenodd" class="c" d="m451 81l1 1zm25 0l-1 2z"/><path class="e" d="m228 83v1l-2 1v-3z"/><path class="c" d="m401 88v-1l6-5zm52-6l1 1z"/><path class="a" d="m452 83l1 1z"/><path class="c" d="m455.7 83.3l0.6 0.4z"/><path class="a" d="m476 83l1 1z"/><path class="d" d="m452.4 126.9c-3.4 10.8-36.1 9.7-43 3.3-6-5.6-2.9-21.8-1.9-29.2 0.4-3.3 0.3-14 3.1-15.9 2.9-1.9 10.2 1.2 13.4 1.6 9.1 1.1 17.2-1.5 26-2.7 0.3 13.2 6.5 30.1 2.4 42.9z"/><path class="c" d="m458 84l1 1zm6 1l1 1zm9 0l1 1z"/><path class="e" d="m179 87l1 1z"/><path class="a" d="m465 87l1 1zm7 0l1 1z"/><path class="e" d="m334 88v2l-2-2z"/><path fill-rule="evenodd" class="c" d="m279 104h-1v-13zm-36-13l1 1z"/><path fill-rule="evenodd" class="b" d="m244 92v10c-4-2.6-3.6-5.9-2-10zm36 12h-1v-12c3.8 3.7 2.7 7.3 1 12z"/><path class="c" d="m241 93l1 1zm-1 1l1 1zm-1 1l1 1z"/><path class="a" d="m239 96l1 1zm43 0l1 1zm-42 2l1 1z"/><path class="e" d="m152 99c-0.9 1.9-1.7 3-3 1l-3 2-1-3zm20 1v1l-1 1-3-2-1 2h-1l-2-3z"/><path class="c" d="m224.3 100.7l0.4 0.6z"/><path class="a" d="m241 100l1 1zm40 0l1 1zm-38 2l1 1zm37 0l1 1z"/><path class="b" d="m380 102l1 1z"/><path fill-rule="evenodd" class="a" d="m223.9 115.1h-1v-9zm-43-8v14h1zm43.4-3.4l0.4 0.6z"/><path class="b" d="m380 112l1 1z"/><path fill-rule="evenodd" class="a" d="m223 124h-1v-7zm27-6l-1 6h24c-1-8.9-15.8-6-23-6z"/><path class="b" d="m332 125c0 21.2 0.7 41.8-2.4 63-2.2 14.7-9.7 30.6-5.6 45-12.1 3.5-9.2-11-9-19 0.6-23.8 2.1-47.6-4-71h-1c-1.1 26-5.7 50.7-3.2 77 0.8 7.6 1 15.9-8.8 13 3.8-14.2-3.2-30.5-5.4-45-3.2-20.5-2.6-41.3-2.6-62z"/><path fill-rule="evenodd" class="a" d="m333 137h-1v-9zm-150.7-10.3l0.4 0.6zm39 1l0.3 0.7z"/><path class="c" d="m221 130c0 22.5-0.9 44.7-4 67-1.1 7.8-0.1 20.7-10 21l-4-75h-1c-4.6 24.7-4 50-4 75-10.2-0.3-9.4-13-10.6-21-3.3-22.7-3.6-45.3-5.4-68z"/><path class="a" d="m408 133h-1v-4z"/><path class="c" d="m452 130c0 20.9-0.6 41.4-4.1 62-2.3 13.9-8.6 27.2-4.9 41-3.1 0.9-8.5 2.2-9.6-2.1-2-7.7 1.4-18.1 1.6-25.9 0.5-20.2-0.1-42.3-5-62h-1l-3 91h-9l-5.7-44-3.3-60c15.1 5.3 28.9 5 44 0z"/><path class="b" d="m183 145h-1v-12z"/><path fill-rule="evenodd" class="d" d="m408 154h-1v-21zm-58-18v1l-5-2v-1z"/><path class="b" d="m382 134l1 1z"/><path class="d" d="m383 134l1 1z"/><path class="c" d="m384 135c-0.1 22.1-0.3 73.5-5.9 91.3-4.1 12.6-23.2 13.3-27.1 0-6-20.4-4.7-67-6-91.3 14 11.4 25.1 11.9 39 0z"/><path class="d" d="m381 135l1 1z"/><path class="b" d="m350 136l1 1zm29 0l1 1z"/><path class="d" d="m380 136l1 1z"/><path class="a" d="m290 155h-1v-18z"/><path class="d" d="m351.7 137.3l0.6 0.4z"/><path class="b" d="m353 137l1 1z"/><path class="d" d="m379 138h-3v-1z"/><path class="a" d="m241 138l1 1z"/><path class="d" d="m346 145h-1v-7zm15-6h-5v-1z"/><path class="b" d="m364 139h-3v-1zm5 0h-3v-1z"/><path class="d" d="m374 139h-5v-1z"/><path class="a" d="m281 145h-1v-6z"/><path class="d" d="m384 147h-1v-5z"/><path class="b" d="m202 143l1 1z"/><path fill-rule="evenodd" class="a" d="m222 154h-1v-11zm88-11l2 3z"/><path class="d" d="m429 143l2 2z"/><path fill-rule="evenodd" class="a" d="m183 153h-1v-8zm19-9l1 1zm227 0l1 1z"/><path class="b" d="m201.3 145.7l0.4 0.6z"/><path class="a" d="m345.3 145.7l0.4 0.6zm85 0l0.3 0.7z"/><path class="b" d="m203.3 146.7l0.4 0.6z"/><path fill-rule="evenodd" class="a" d="m202 150h-1v-3zm181.3-2.3l0.4 0.6z"/><path class="d" d="m428.3 147.7l0.4 0.6z"/><path fill-rule="evenodd" class="a" d="m204 151h-1v-3zm39 3h-1v-6zm66.3-5.3l0.4 0.6z"/><path class="d" d="m347 152h-1v-4z"/><path fill-rule="evenodd" class="a" d="m313 152h-1v-3zm115-3l1 1z"/><path fill-rule="evenodd" class="d" d="m383 153h-1v-3zm48.3-2.3l0.4 0.6z"/><path fill-rule="evenodd" class="a" d="m280 156h-1v-4zm66.3-3.3l0.4 0.6zm84.6-0.6l1 1z"/><path class="b" d="m201 156h-1v-3z"/><path fill-rule="evenodd" class="a" d="m333 162h-1v-9zm49-9l1 1z"/><path class="b" d="m204.3 154.7l0.4 0.6z"/><path fill-rule="evenodd" class="a" d="m407.9 159.1h-1v-5zm-99.6-4.4l0.4 0.6z"/><path fill-rule="evenodd" class="d" d="m347.9 158.1h-1v-3zm79.4-3.4l0.4 0.6z"/><path fill-rule="evenodd" class="a" d="m201 159h-1v-3zm4 1h-1v-4zm108.3-3.3l0.4 0.6z"/><path class="d" d="m381.3 156.7l0.4 0.6z"/><path class="a" d="m427 156l1 1z"/><path class="d" d="m433 160h-1v-3z"/><path fill-rule="evenodd" class="a" d="m243.9 162.1h-1v-3zm103.1-4.1l1 1zm34.3 0.7l0.4 0.6z"/><path class="b" d="m184 164h-1v-4zm37 1h-1v-5z"/><path class="a" d="m432.3 160.7l0.4 0.6z"/><path class="d" d="m452 164h-1v-4z"/><path fill-rule="evenodd" class="a" d="m307.9 165.1h-1v-4zm-29.6-3.4l0.4 0.6z"/><path fill-rule="evenodd" class="d" d="m380.9 164.1h-1v-3zm-32.6-2.4l0.4 0.6z"/><path class="b" d="m200 166h-1v-4z"/><path class="d" d="m426.3 162.7l0.4 0.6z"/><path fill-rule="evenodd" class="a" d="m183.9 169.1h-1v-5zm164.4-5.4l0.4 0.6z"/><path class="b" d="m206 167h-1v-3z"/><path fill-rule="evenodd" class="a" d="m315 168h-1v-4zm111.9-0.9h-1v-3zm25 0h-1v-3zm-231 3h-1v-5zm24-2h-1v-3zm-45 4h-1v-6zm180.4-7.4l0.4 0.6z"/><path class="d" d="m409 169h-1v-3z"/><path fill-rule="evenodd" class="a" d="m206 171h-1v-4zm84.9 1.1h-1v-5zm-13.6-4.4l0.4 0.6z"/><path class="d" d="m350 171h-1v-4zm84 0h-1v-4zm-54 2h-1v-4z"/><path fill-rule="evenodd" class="a" d="m409 172h-1v-3zm-77 3h-1v-5zm102-1h-1v-3zm-188.7-2.3l0.4 0.6zm104 0l0.3 0.7z"/><path class="b" d="m185 176h-1v-4z"/><path fill-rule="evenodd" class="a" d="m307 177h-1v-5zm-31-5l1 1z"/><path class="d" d="m451 175h-1v-3z"/><path class="b" d="m220 178h-1v-5z"/><path class="d" d="m350 173l1 1zm28 0l1 1z"/><path class="a" d="m363 177v1l-12-3v-1z"/><path class="d" d="m352 174l1 1zm24 0l1 1z"/><path class="a" d="m377 174l1 1z"/><path class="d" d="m426 178h-1v-4z"/><path fill-rule="evenodd" class="a" d="m316 181h-1v-6zm-69-6l1 1zm28 0l1 1z"/><path class="d" d="m355.7 175.3l0.6 0.4zm17 0l0.7 0.3z"/><path fill-rule="evenodd" class="a" d="m377 176l-11 2v-1zm-192.1 3.1h-1v-3zm265.4-3.4l0.4 0.6z"/><path class="b" d="m199 183h-1v-7z"/><path class="a" d="m274 176c-1.3 5.6-0.6 11.3-1.6 17-2.5 14.1-6.5 23.6-4.4 38-7.5-0.6-6-7-6-13 0-13.4 0.3-26.7 0-40h-2v40c0 6.2 1.8 12.4-6 13 2.8-13.8-1.3-23.5-4-37-1.2-6-0.6-12.1-2-18z"/><path class="d" d="m369 177h-9v-1zm41 2h-1v-3z"/><path class="b" d="m207 186h-1v-9z"/><path fill-rule="evenodd" class="a" d="m220 182h-1v-4zm72 0h-1v-4zm134-1h-1v-3zm-63 2h-1v-4zm-32.1 0.1h-1v-3zm78.4-3.4l0.4 0.6z"/><path class="d" d="m449.3 181.7l0.4 0.6z"/><path class="b" d="m186 185h-1v-3z"/><path class="a" d="m199 198h-1v-15z"/><path class="d" d="m435 195h-1v-12z"/><path class="a" d="m449 183l1 1z"/><path class="b" d="m219 187h-1v-3z"/><path class="d" d="m410.3 184.7l0.4 0.6z"/><path fill-rule="evenodd" class="a" d="m186 188h-1v-3zm21 27h-1v-29zm11.9-24.9h-1v-3zm135.1 1.9h-1v-5zm22-1h-1v-3zm34.3-4.3l0.4 0.6zm-118 1l0.3 0.7zm37 1l0.3 0.7z"/><path class="d" d="m448.3 188.7l0.4 0.6z"/><path class="b" d="m187 193h-1v-3z"/><path class="a" d="m448 190l1 1z"/><path class="d" d="m411 191l1 1z"/><path class="a" d="m411 192l1 1zm-224.7 1.7l0.4 0.6z"/><path class="b" d="m217.3 193.7l0.4 0.6z"/><path class="a" d="m293.3 193.7l0.4 0.6zm69.6 39.4l-5-1v1h3v1c-3-1-3.5-1.9-3-5h1l3 2v-38c3.9 9.1 2.6 30.2 1 40zm-34.6-38.4l0.3 0.7z"/><path class="d" d="m447 194l1 1z"/><path fill-rule="evenodd" class="a" d="m218 198h-1v-3zm216.9 3.1h-1v-6zm-80.6-5.4l0.4 0.6zm92.6-0.6l1 1zm-73 1l1 1z"/><path class="d" d="m412.3 196.7l0.4 0.6z"/><path class="b" d="m187.3 197.7l0.4 0.6z"/><path fill-rule="evenodd" class="a" d="m188 202h-1v-3zm224-4l1 1zm-117.7 1.7l0.4 0.6zm60.6-0.6l1 1z"/><path class="d" d="m446 199l1 1z"/><path class="b" d="m216.3 200.7l0.4 0.6z"/><path class="a" d="m327 200l1 1zm119 0l1 1z"/><path fill-rule="evenodd" class="d" d="m434.9 211.1h-1v-10zm-21.6-9.4l0.4 0.6z"/><path fill-rule="evenodd" class="a" d="m217 205h-1v-3zm99 4h-1v-7zm56-6l1 1zm41 0l1 1z"/><path class="b" d="m188 204l1 1z"/><path fill-rule="evenodd" class="a" d="m199 221h-1v-17zm96.3-16.3l0.4 0.6zm31 0l0.3 0.7z"/><path class="d" d="m445 204l1 1z"/><path class="a" d="m188.3 205.7l0.4 0.6zm256.6-0.6l1 1zm-88 1l1 1z"/><path class="d" d="m414 206l1 1z"/><path class="b" d="m215.3 207.7l0.4 0.6z"/><path class="a" d="m371 207l1 1zm43 0l1 1z"/><path class="d" d="m444 208l1 1z"/><path class="b" d="m189 209l1 1z"/><path class="a" d="m215 209l1 1zm81.3 0.7l0.4 0.6zm28.6-0.6l1 1zm119 0l1 1zm-254.6 1.6l0.3 0.7zm169 0l0.3 0.7z"/><path class="d" d="m415 210l1 1z"/><path fill-rule="evenodd" class="a" d="m425.9 214.1h-1v-3zm-55.6-2.4l0.4 0.6zm44.6-0.6l1 1z"/><path class="b" d="m214.3 212.7l0.4 0.6z"/><path class="d" d="m443 212l1 1z"/><path fill-rule="evenodd" class="a" d="m306.9 218.1h-1v-5zm-9.6-4.4l0.4 0.6zm27 0l0.3 0.7zm118.7-0.7l1 1z"/><path class="b" d="m190 214l1 1z"/><path class="a" d="m214.3 214.7l0.4 0.6zm155 0l0.3 0.7z"/><path fill-rule="evenodd" class="d" d="m426 218h-1v-4zm-10-4l1 1z"/><path class="a" d="m190 215l1 1z"/><path class="b" d="m206.3 215.7l0.4 0.6z"/><path class="a" d="m359 215l1 1zm57 0l1 1z"/><path class="d" d="m442 216l1 1z"/><path class="b" d="m198 218l1 12h-12l4-13z"/><path class="a" d="m207 221h-1v-4z"/><path class="b" d="m218 230c-10.4 2.5-12.8-2.5-11-12l6-1z"/><path fill-rule="evenodd" class="a" d="m361 224h-1v-7zm-38-7l1 1zm119 0l1 1z"/><path class="c" d="m153 218c0 3.4 0.4 8.7-2 11.4-2.1 2.4-10.2 2.7-10.4-1.5-0.2-3.5 3.5-7.3 5.4-9.9zm18 0c1.8 2.7 5.5 6.4 5.4 9.9-0.1 4-7.5 3.8-9.8 2.1-3.3-2.4-3.1-8.5-2.6-12z"/><path class="b" d="m169 218l1 1z"/><path fill-rule="evenodd" class="a" d="m369 223h-1v-5zm-71-5l1 1z"/><path class="d" d="m417 218l1 1z"/><path fill-rule="evenodd" class="a" d="m315 233h-1v-14zm118.3-13.3l0.4 0.6z"/><path class="b" d="m144 220l1 1z"/><path class="a" d="m172 220l1 1zm18 0l1 1zm24 0l1 1zm108.3 0.7l0.4 0.6z"/><path class="d" d="m441 220l1 1z"/><path class="a" d="m143 221l1 1z"/><path class="b" d="m153 221l1 1z"/><path class="a" d="m173 221l1 1zm126.3 0.7l0.4 0.6z"/><path class="d" d="m418 221l1 1zm15.3 0.7l0.4 0.6z"/><path class="a" d="m142 222l1 1zm11.3 0.7l0.4 0.6z"/><path class="b" d="m163 222l1 1z"/><path class="a" d="m189.3 222.7l0.4 0.6zm228.6-0.6l1 1zm-255 1l1 1z"/><path class="b" d="m174 223l1 1z"/><path fill-rule="evenodd" class="a" d="m200 229h-1v-6zm227-1h-1v-5zm-212-5l1 1z"/><path class="d" d="m440 223l1 1z"/><path class="b" d="m141 224l1 1z"/><path fill-rule="evenodd" class="a" d="m206 229h-1v-5zm115.9-1.9h-1v-3zm-146.9-3.1l1 1zm13 0l1 1zm28 0l1 1zm84.3 0.7l0.4 0.6z"/><path class="d" d="m419 224l1 1zm14 0l1 1z"/><path fill-rule="evenodd" class="a" d="m152.9 230.1h-1v-5zm154-5v8h1zm133.4-0.4l0.4 0.6zm-300.4 0.4l1 1zm36 0l1 1zm183.4 0.6l0.3 0.7z"/><path class="b" d="m419 225l1 1z"/><path class="a" d="m433 225l1 1z"/><path class="b" d="m164 226l1 1z"/><path fill-rule="evenodd" class="a" d="m367 231h4l-1-3h1l1 5h-6v-7zm-180-5l1 1zm30 0l1 1zm152 0l1 1z"/><path class="b" d="m433 226l1 1z"/><path fill-rule="evenodd" class="a" d="m165 230h-1v-3zm12-3v3h1zm-38 0l1 1zm160.3 0.7l0.4 0.6zm23 0l0.3 0.7zm95.7-0.7l1 1zm23.3 0.7l0.3 0.7z"/><path fill-rule="evenodd" class="b" d="m427 232h-1v-4zm-288-4l1 1z"/><path class="a" d="m139 229l1 1zm67 0l1 1z"/><path class="d" d="m260 229l1 1z"/><path class="a" d="m298.3 229.7l0.4 0.6zm118.6-0.6l1 1zm-277 1l1 1zm11 0l1 1zm14 0l1 1zm11 0l1 1zm12.7 0.3l0.7 0.3zm8 0l0.6 0.4zm11 0l0.7 0.3zm8.3-0.3l1 1z"/><path fill-rule="evenodd" class="d" d="m253 230c2.2 3.9 4.8 3.9 7 0zm9 0c2.1 3.8 5.5 4.6 7 0z"/><path fill-rule="evenodd" class="a" d="m150 232h-8v-1zm25 0h-8v-1zm148-2l1 1zm119 0l1 1zm-25.7 1.7l0.4 0.6zm-119.4 0.4l1 1z"/><path class="b" d="m362 233h-4v-1zm9 0h-4v-1z"/><path class="a" d="m426 232l1 1zm-128 1l1 1zm8 0l1 1zm9 0l1 1zm8 0l1 1zm45.7 0.3l0.6 0.4zm64.4-0.4l1 1z"/><path class="b" d="m442 233l1 1z"/><path class="f" d="m305 235h-5v-1zm17 0h-5v-1zm102 0h-5v-1zm17 0h-5v-1z"/></svg>