<?xml version="1.0" encoding="UTF-8" standalone="no"?>
<!-- Created with Inkscape (http://www.inkscape.org/) by Marsupilami -->
<svg
   xmlns:svg="http://www.w3.org/2000/svg"
   xmlns="http://www.w3.org/2000/svg"
   version="1.0"
   width="1024"
   height="373"
   viewBox="0 0 105.96875 38.581249"
   id="svg4233">
  <defs
     id="defs4235" />
  <g
     transform="translate(-322.01563,-513.07156)"
     id="layer1">
    <path
       d="M 326.35063,547.99906 L 356.75563,547.99906 L 356.75563,516.68156 L 326.35063,516.68156 L 326.35063,547.99906 z "
       style="fill:#fff200;fill-opacity:1;fill-rule:nonzero;stroke:none"
       id="path9134" />
    <path
       d="M 9.65625,0 C 4.3287495,0 0,4.32625 0,9.65625 L 0,28.9375 C 0,34.263751 4.32875,38.59375 9.65625,38.59375 L 28.9375,38.59375 C 34.263749,38.593751 38.59375,34.26375 38.59375,28.9375 L 38.59375,9.65625 C 38.593751,4.32625 34.26375,0 28.9375,0 L 9.65625,0 z M 10.15625,5.78125 L 28.40625,5.78125 C 30.823749,5.7812501 32.78125,7.7375 32.78125,10.15625 L 32.78125,28.40625 C 32.781249,30.825 30.82375,32.78125 28.40625,32.78125 L 10.15625,32.78125 C 7.7374998,32.78125 5.78125,30.825 5.78125,28.40625 L 5.78125,10.15625 C 5.7812501,7.7375005 7.7375,5.78125 10.15625,5.78125 z M 43.5625,9.46875 C 45.1875,13.62875 47.157501,17.623751 49.5,21.34375 L 49.5,28.71875 L 54.34375,28.71875 L 54.34375,21.34375 C 56.74,17.73375 58.7075,13.73875 60.25,9.46875 L 55.1875,9.46875 C 54.38875,12.22375 53.396248,14.654999 52.15625,16.96875 C 50.835,14.43375 49.912501,12.19625 49.03125,9.46875 L 43.5625,9.46875 z M 62.1875,9.46875 L 62.1875,28.71875 L 74.15625,28.71875 L 74.15625,25 L 67,25 L 67,20.59375 L 73.03125,20.59375 L 73.03125,16.96875 L 67,16.96875 L 67,13.15625 L 74.0625,13.15625 L 74.0625,9.46875 L 62.1875,9.46875 z M 76.9375,9.46875 L 76.9375,28.71875 L 87.71875,28.71875 L 87.71875,24.84375 L 81.78125,24.84375 L 81.78125,9.46875 L 76.9375,9.46875 z M 90.03125,9.46875 L 90.03125,28.71875 L 100.84375,28.71875 L 100.84375,24.84375 L 94.875,24.84375 L 94.875,9.46875 L 90.03125,9.46875 z M 102.28125,26.84375 L 102.28125,27.125 L 102.78125,27.125 L 102.78125,28.6875 L 103.15625,28.6875 L 103.15625,27.125 L 103.65625,27.125 L 103.65625,26.84375 L 102.28125,26.84375 z M 104,26.84375 C 103.925,27.44375 103.88,28.10625 103.875,28.6875 L 104.1875,28.6875 C 104.18875,28.18875 104.24,27.66375 104.28125,27.21875 L 104.71875,28.6875 L 105.0625,28.6875 L 105.53125,27.21875 C 105.58125,27.67 105.61875,28.1875 105.625,28.6875 L 105.96875,28.6875 C 105.96125,28.09 105.9175,27.448749 105.84375,26.84375 L 105.34375,26.84375 L 104.9375,28.15625 L 104.90625,28.15625 L 104.5,26.84375 L 104,26.84375 z "
       transform="translate(322.01563,513.07156)"
       style="fill:#231f20;fill-opacity:1;fill-rule:nonzero;stroke:none"
       id="path9136" />
  </g>
</svg>
